<svg xmlns="http://www.w3.org/2000/svg" xmlns:xlink="http://www.w3.org/1999/xlink" width="1080" zoomAndPan="magnify" viewBox="0 0 810 809.999993" height="1080" preserveAspectRatio="xMidYMid meet" version="1.0"><path fill="#43b1ca" d="M 17.375 402.375 C 19.253906 402.375 20.503906 402.375 22.378906 401.121094 C 96.214844 370.464844 270.785156 279.734375 341.492188 88.894531 L 342.742188 95.152344 C 343.992188 100.785156 349 104.539062 354.628906 104.539062 C 355.257812 104.539062 356.507812 104.539062 357.757812 103.914062 C 364.640625 102.660156 368.394531 95.777344 367.144531 88.894531 L 355.257812 36.960938 C 354.003906 32.582031 350.875 29.453125 346.496094 27.578125 C 342.117188 26.324219 337.738281 27.578125 334.609375 30.078125 L 294.5625 66.996094 C 289.558594 71.375 288.929688 79.511719 293.9375 84.515625 C 298.316406 89.519531 306.453125 90.148438 311.457031 85.140625 L 318.339844 78.882812 C 251.390625 261.589844 83.699219 347.9375 12.371094 377.347656 C 6.113281 379.847656 2.984375 387.355469 5.488281 393.613281 C 7.988281 399.871094 12.371094 402.375 17.375 402.375 Z M 17.375 402.375 " fill-opacity="1" fill-rule="nonzero"/><path fill="#43b1ca" d="M 430.339844 115.800781 L 480.398438 115.800781 L 480.398438 192.761719 C 488.53125 190.261719 496.664062 188.382812 505.425781 187.132812 L 505.425781 115.800781 C 505.425781 102.035156 494.164062 90.773438 480.398438 90.773438 L 430.339844 90.773438 C 416.574219 90.773438 405.3125 102.035156 405.3125 115.800781 L 405.3125 234.058594 C 413.445312 227.175781 421.582031 220.917969 430.339844 215.289062 Z M 430.339844 115.800781 " fill-opacity="1" fill-rule="nonzero"/><path fill="#43b1ca" d="M 802.011719 707.09375 L 669.988281 574.445312 C 667.484375 571.941406 667.484375 567.5625 669.988281 565.058594 L 723.171875 511.246094 C 725.046875 509.371094 728.175781 509.371094 730.679688 511.246094 L 782.613281 561.304688 C 787.621094 566.308594 795.753906 565.683594 800.132812 561.304688 C 805.140625 556.296875 804.511719 548.164062 800.132812 543.785156 L 748.199219 493.726562 C 736.3125 482.464844 718.792969 482.464844 706.902344 493.101562 L 688.132812 473.703125 C 703.773438 447.425781 712.535156 417.390625 712.535156 384.855469 C 712.535156 288.496094 634.320312 209.65625 537.335938 209.65625 C 440.351562 209.65625 362.140625 287.871094 362.140625 384.855469 C 362.140625 481.839844 440.351562 560.050781 537.335938 560.050781 C 573.003906 560.050781 606.164062 549.414062 634.320312 530.644531 L 652.464844 548.789062 C 641.203125 561.304688 641.203125 580.074219 653.09375 592.589844 L 785.117188 725.238281 C 787.621094 727.742188 790.746094 728.992188 793.875 728.992188 C 797.003906 728.992188 800.132812 727.742188 802.636719 725.238281 C 807.015625 719.605469 807.015625 712.097656 802.011719 707.09375 Z M 386.542969 384.230469 C 386.542969 301.636719 454.117188 234.058594 536.710938 234.058594 C 619.304688 234.058594 686.878906 301.636719 686.878906 384.230469 C 686.878906 466.820312 619.304688 534.398438 536.710938 534.398438 C 454.117188 534.398438 386.542969 466.820312 386.542969 384.230469 Z M 673.113281 494.351562 L 688.757812 510.621094 L 668.734375 530.644531 L 653.09375 515 C 660.601562 508.117188 666.859375 501.234375 673.113281 494.351562 Z M 673.113281 494.351562 " fill-opacity="1" fill-rule="nonzero"/><path fill="#43b1ca" d="M 517.941406 628.253906 L 505.425781 628.253906 L 505.425781 581.953125 C 496.664062 580.699219 488.53125 578.824219 480.398438 576.320312 L 480.398438 628.253906 L 430.339844 628.253906 L 430.339844 553.796875 C 421.582031 548.164062 413.445312 541.90625 405.3125 535.023438 L 405.3125 628.253906 L 380.285156 628.253906 L 380.285156 509.371094 C 370.273438 496.855469 362.140625 483.714844 355.257812 469.324219 L 355.257812 628.253906 L 305.199219 628.253906 L 305.199219 240.316406 L 355.257812 240.316406 L 355.257812 299.757812 C 362.140625 285.367188 370.273438 271.601562 380.285156 259.714844 L 380.285156 240.316406 C 380.285156 226.550781 369.023438 215.289062 355.257812 215.289062 L 305.199219 215.289062 C 291.433594 215.289062 280.171875 226.550781 280.171875 240.316406 L 280.171875 628.253906 L 255.144531 628.253906 L 255.144531 365.457031 C 255.144531 351.691406 243.878906 340.429688 230.113281 340.429688 L 180.058594 340.429688 C 166.292969 340.429688 155.03125 351.691406 155.03125 365.457031 L 155.03125 628.253906 L 130.003906 628.253906 L 130.003906 490.597656 C 130.003906 476.832031 118.738281 465.570312 104.972656 465.570312 L 54.917969 465.570312 C 41.152344 465.570312 29.890625 476.832031 29.890625 490.597656 L 29.890625 628.253906 L 17.375 628.253906 C 10.492188 628.253906 4.859375 633.886719 4.859375 640.769531 C 4.859375 647.652344 10.492188 653.28125 17.375 653.28125 L 517.941406 653.28125 C 524.824219 653.28125 530.453125 647.652344 530.453125 640.769531 C 530.453125 633.886719 524.824219 628.253906 517.941406 628.253906 Z M 54.917969 628.253906 L 54.917969 490.597656 L 104.972656 490.597656 L 104.972656 628.253906 Z M 180.058594 628.253906 L 180.058594 365.457031 L 230.113281 365.457031 L 230.113281 628.253906 Z M 180.058594 628.253906 " fill-opacity="1" fill-rule="nonzero"/></svg>