<svg xmlns="http://www.w3.org/2000/svg" xmlns:xlink="http://www.w3.org/1999/xlink" width="1080" zoomAndPan="magnify" viewBox="0 0 810 809.999993" height="1080" preserveAspectRatio="xMidYMid meet" version="1.0"><defs><clipPath id="76e5abf1e2"><path d="M 40.648438 202 L 769.648438 202 L 769.648438 810 L 40.648438 810 Z M 40.648438 202 " clip-rule="nonzero"/></clipPath></defs><g clip-path="url(#76e5abf1e2)"><path fill="#43b1ca" d="M 721.402344 488.59375 L 604.503906 488.59375 L 604.503906 263.527344 C 604.503906 229.640625 576.933594 202.066406 543.042969 202.066406 L 334.3125 202.066406 C 300.421875 202.066406 272.851562 229.640625 272.851562 263.527344 L 272.851562 268.808594 L 96.007812 268.808594 C 80.6875 268.808594 66.453125 275.851562 55.933594 288.632812 C 46.078125 300.609375 40.648438 316.367188 40.648438 333 L 40.648438 501.164062 C 40.648438 517.796875 46.078125 533.554688 55.933594 545.53125 C 66.453125 558.316406 80.6875 565.355469 96.007812 565.355469 L 272.859375 565.355469 C 272.855469 565.457031 272.851562 565.558594 272.851562 565.664062 L 272.851562 748.445312 C 272.851562 782.332031 300.421875 809.902344 334.3125 809.902344 L 543.042969 809.902344 C 576.933594 809.902344 604.503906 782.332031 604.503906 748.445312 L 604.503906 697.914062 L 721.402344 697.914062 C 747.839844 697.914062 769.347656 676.40625 769.347656 649.96875 L 769.347656 536.539062 C 769.347656 510.105469 747.839844 488.59375 721.402344 488.59375 Z M 77.992188 527.375 C 72.335938 520.5 69.21875 511.191406 69.21875 501.164062 L 69.21875 333 C 69.21875 322.972656 72.332031 313.664062 77.992188 306.789062 C 82.988281 300.722656 89.382812 297.378906 96.007812 297.378906 L 309.859375 297.378906 C 316.480469 297.378906 322.878906 300.722656 327.875 306.789062 C 333.53125 313.664062 336.648438 322.972656 336.648438 333 L 336.648438 577.179688 L 295.621094 540.429688 C 293 538.082031 289.609375 536.785156 286.089844 536.785156 L 96.007812 536.785156 C 89.382812 536.785156 82.988281 533.445312 77.992188 527.375 Z M 543.042969 778.734375 L 334.3125 778.734375 C 317.609375 778.734375 304.019531 765.148438 304.019531 748.445312 L 304.019531 586.308594 L 341.40625 619.796875 C 344.078125 622.191406 347.484375 623.445312 350.941406 623.445312 C 352.910156 623.445312 354.894531 623.035156 356.765625 622.203125 C 361.910156 619.902344 365.222656 614.792969 365.222656 609.160156 L 365.222656 333 C 365.222656 316.367188 359.792969 300.609375 349.9375 288.632812 C 339.417969 275.847656 325.183594 268.808594 309.863281 268.808594 L 304.023438 268.808594 L 304.023438 263.527344 C 304.023438 246.824219 317.613281 233.234375 334.3125 233.234375 L 543.046875 233.234375 C 559.746094 233.234375 573.339844 246.824219 573.339844 263.527344 L 573.339844 488.59375 L 562.238281 488.59375 C 535.800781 488.59375 514.289062 510.105469 514.289062 536.542969 L 514.289062 738.734375 C 514.289062 744.558594 517.828125 749.800781 523.230469 751.980469 C 524.960938 752.679688 526.773438 753.019531 528.574219 753.019531 C 532.378906 753.019531 536.113281 751.5 538.859375 748.652344 L 573.339844 712.898438 L 573.339844 748.445312 C 573.335938 765.148438 559.746094 778.734375 543.042969 778.734375 Z M 740.777344 649.96875 C 740.777344 660.65625 732.082031 669.347656 721.398438 669.347656 L 581.710938 669.347656 C 577.835938 669.347656 574.121094 670.925781 571.429688 673.71875 L 542.855469 703.347656 L 542.855469 536.542969 C 542.855469 525.859375 551.546875 517.164062 562.234375 517.164062 L 721.398438 517.164062 C 732.082031 517.164062 740.777344 525.859375 740.777344 536.542969 Z M 740.777344 649.96875 " fill-opacity="1" fill-rule="nonzero"/></g><path fill="#43b1ca" d="M 642.609375 542.484375 C 635.621094 537.84375 627.421875 535.347656 618.835938 535.347656 C 607.328125 535.347656 596.503906 539.828125 588.363281 547.96875 C 571.558594 564.773438 571.558594 592.113281 588.363281 608.917969 L 591.757812 612.3125 L 632.503906 653.054688 C 635.292969 655.84375 638.949219 657.238281 642.601562 657.238281 C 646.257812 657.238281 649.914062 655.84375 652.703125 653.054688 L 693.449219 612.3125 C 693.449219 612.308594 693.457031 612.304688 693.457031 612.300781 L 696.839844 608.917969 C 704.980469 600.777344 709.464844 589.957031 709.464844 578.445312 C 709.464844 566.933594 704.980469 556.109375 696.839844 547.96875 C 682.128906 533.257812 659.332031 531.429688 642.609375 542.484375 Z M 608.566406 588.714844 C 605.824219 585.972656 604.3125 582.324219 604.3125 578.445312 C 604.3125 574.566406 605.824219 570.914062 608.566406 568.171875 C 611.3125 565.429688 614.960938 563.917969 618.839844 563.917969 C 622.71875 563.917969 626.367188 565.429688 629.113281 568.171875 L 632.496094 571.554688 C 632.496094 571.558594 632.503906 571.5625 632.503906 571.566406 C 633.375 572.4375 634.332031 573.171875 635.347656 573.769531 C 640.347656 576.726562 646.765625 576.367188 651.425781 572.695312 C 651.492188 572.644531 651.558594 572.597656 651.625 572.542969 C 651.625 572.542969 651.628906 572.539062 651.632812 572.535156 C 652.003906 572.230469 652.363281 571.910156 652.707031 571.5625 L 656.101562 568.167969 C 658.84375 565.425781 662.492188 563.914062 666.375 563.914062 C 670.253906 563.914062 673.902344 565.425781 676.644531 568.167969 C 679.390625 570.910156 680.898438 574.558594 680.898438 578.441406 C 680.898438 582.320312 679.390625 585.964844 676.644531 588.710938 L 642.609375 622.75 Z M 608.566406 588.714844 " fill-opacity="1" fill-rule="nonzero"/><path fill="#43b1ca" d="M 304.972656 490.195312 C 304.972656 486.425781 304.238281 482.824219 302.90625 479.527344 C 306.855469 474.628906 309.222656 468.402344 309.222656 461.632812 C 309.222656 457.324219 308.261719 453.238281 306.546875 449.570312 C 309.859375 444.90625 311.808594 439.210938 311.808594 433.066406 C 311.808594 429.695312 311.222656 426.457031 310.144531 423.453125 C 314.625 418.410156 317.351562 411.769531 317.351562 404.507812 C 317.351562 388.753906 304.535156 375.9375 288.785156 375.9375 L 236.292969 375.9375 C 236.894531 364.78125 236.707031 353.566406 235.730469 342.457031 C 235.351562 322.71875 219.175781 306.78125 199.347656 306.78125 C 184.578125 306.78125 172.5625 318.796875 172.5625 333.566406 L 172.5625 341.066406 C 172.5625 350.625 171.394531 360.179688 169.09375 369.457031 C 166.957031 378.058594 159.273438 384.066406 150.410156 384.066406 L 110.636719 384.066406 C 102.746094 384.066406 96.347656 390.460938 96.347656 398.355469 L 96.347656 504.480469 C 96.347656 512.371094 102.746094 518.765625 110.636719 518.765625 L 276.40625 518.765625 C 292.15625 518.765625 304.972656 505.945312 304.972656 490.195312 Z M 136.128906 490.191406 L 124.921875 490.191406 L 124.921875 412.636719 L 136.128906 412.636719 Z M 280.65625 433.066406 C 272.765625 433.066406 266.371094 439.457031 266.371094 447.347656 C 266.371094 447.347656 266.371094 447.351562 266.371094 447.351562 C 266.371094 455.085938 272.519531 461.390625 280.199219 461.628906 L 276.40625 461.628906 C 268.515625 461.628906 262.121094 468.023438 262.121094 475.910156 C 262.121094 475.910156 262.121094 475.914062 262.121094 475.914062 C 262.121094 483.660156 268.28125 489.964844 275.96875 490.195312 L 164.699219 490.195312 L 164.699219 410.472656 C 180.320312 405.601562 192.710938 392.90625 196.824219 376.339844 C 199.683594 364.816406 201.132812 352.945312 201.132812 341.070312 L 201.132812 335.558594 C 204.585938 336.367188 207.167969 339.472656 207.167969 343.167969 C 207.167969 343.597656 207.183594 344.027344 207.222656 344.457031 C 208.472656 358.273438 208.332031 372.277344 206.804688 386.070312 L 206.519531 388.652344 C 206.070312 392.691406 207.363281 396.726562 210.078125 399.753906 C 212.785156 402.78125 216.65625 404.511719 220.71875 404.511719 L 282.789062 404.511719 C 275.109375 404.75 268.957031 411.046875 268.957031 418.785156 C 268.957031 426.53125 275.117188 432.835938 282.800781 433.066406 Z M 280.65625 433.066406 " fill-opacity="1" fill-rule="nonzero"/><path fill="#43b1ca" d="M 457.789062 144.441406 C 457.789062 145.066406 457.757812 145.691406 457.695312 146.3125 C 457.632812 146.9375 457.542969 147.554688 457.421875 148.167969 C 457.296875 148.78125 457.144531 149.386719 456.964844 149.988281 C 456.78125 150.585938 456.570312 151.175781 456.332031 151.753906 C 456.09375 152.332031 455.824219 152.894531 455.53125 153.449219 C 455.234375 154 454.914062 154.535156 454.566406 155.054688 C 454.21875 155.578125 453.847656 156.078125 453.449219 156.5625 C 453.050781 157.046875 452.632812 157.511719 452.191406 157.953125 C 451.746094 158.394531 451.285156 158.816406 450.800781 159.210938 C 450.316406 159.609375 449.816406 159.980469 449.292969 160.328125 C 448.773438 160.675781 448.238281 160.996094 447.6875 161.292969 C 447.132812 161.589844 446.570312 161.855469 445.992188 162.09375 C 445.414062 162.335938 444.824219 162.546875 444.226562 162.726562 C 443.625 162.910156 443.019531 163.058594 442.40625 163.183594 C 441.792969 163.304688 441.171875 163.394531 440.550781 163.457031 C 439.929688 163.519531 439.304688 163.550781 438.675781 163.550781 C 438.050781 163.550781 437.425781 163.519531 436.804688 163.457031 C 436.179688 163.394531 435.5625 163.304688 434.949219 163.183594 C 434.335938 163.058594 433.730469 162.910156 433.128906 162.726562 C 432.53125 162.546875 431.941406 162.335938 431.363281 162.09375 C 430.785156 161.855469 430.222656 161.589844 429.667969 161.292969 C 429.117188 160.996094 428.582031 160.675781 428.058594 160.328125 C 427.539062 159.980469 427.039062 159.609375 426.554688 159.210938 C 426.070312 158.816406 425.605469 158.394531 425.164062 157.953125 C 424.722656 157.511719 424.300781 157.046875 423.90625 156.5625 C 423.507812 156.078125 423.136719 155.578125 422.789062 155.054688 C 422.441406 154.535156 422.117188 154 421.824219 153.449219 C 421.527344 152.894531 421.261719 152.332031 421.023438 151.753906 C 420.78125 151.175781 420.570312 150.585938 420.390625 149.988281 C 420.207031 149.386719 420.058594 148.78125 419.933594 148.167969 C 419.8125 147.554688 419.722656 146.9375 419.660156 146.3125 C 419.597656 145.691406 419.566406 145.066406 419.566406 144.441406 C 419.566406 143.8125 419.597656 143.1875 419.660156 142.566406 C 419.722656 141.945312 419.8125 141.324219 419.933594 140.710938 C 420.058594 140.097656 420.207031 139.492188 420.390625 138.890625 C 420.570312 138.292969 420.78125 137.703125 421.023438 137.125 C 421.261719 136.546875 421.527344 135.984375 421.824219 135.429688 C 422.117188 134.878906 422.441406 134.34375 422.789062 133.824219 C 423.136719 133.300781 423.507812 132.800781 423.90625 132.316406 C 424.300781 131.832031 424.722656 131.371094 425.164062 130.925781 C 425.605469 130.484375 426.070312 130.0625 426.554688 129.667969 C 427.039062 129.269531 427.539062 128.898438 428.058594 128.550781 C 428.582031 128.203125 429.117188 127.882812 429.667969 127.585938 C 430.222656 127.292969 430.785156 127.023438 431.363281 126.785156 C 431.941406 126.542969 432.53125 126.335938 433.128906 126.152344 C 433.730469 125.972656 434.335938 125.820312 434.949219 125.695312 C 435.5625 125.574219 436.179688 125.484375 436.804688 125.421875 C 437.425781 125.359375 438.050781 125.328125 438.675781 125.328125 C 439.304688 125.328125 439.929688 125.359375 440.550781 125.421875 C 441.171875 125.484375 441.792969 125.574219 442.40625 125.695312 C 443.019531 125.820312 443.625 125.972656 444.226562 126.152344 C 444.824219 126.335938 445.414062 126.542969 445.992188 126.785156 C 446.570312 127.023438 447.132812 127.292969 447.6875 127.585938 C 448.238281 127.882812 448.773438 128.203125 449.292969 128.550781 C 449.816406 128.898438 450.316406 129.269531 450.800781 129.667969 C 451.285156 130.0625 451.746094 130.484375 452.191406 130.925781 C 452.632812 131.371094 453.050781 131.832031 453.449219 132.316406 C 453.847656 132.800781 454.21875 133.300781 454.566406 133.824219 C 454.914062 134.34375 455.234375 134.878906 455.53125 135.429688 C 455.824219 135.984375 456.09375 136.546875 456.332031 137.125 C 456.574219 137.703125 456.78125 138.292969 456.964844 138.890625 C 457.144531 139.492188 457.296875 140.097656 457.421875 140.710938 C 457.542969 141.324219 457.632812 141.945312 457.695312 142.566406 C 457.757812 143.1875 457.789062 143.8125 457.789062 144.441406 Z M 457.789062 144.441406 " fill-opacity="1" fill-rule="nonzero"/><path fill="#43b1ca" d="M 354.992188 60.753906 C 377.34375 38.402344 407.066406 26.09375 438.675781 26.09375 C 470.289062 26.09375 500.007812 38.402344 522.363281 60.753906 C 524.898438 63.289062 528.21875 64.558594 531.542969 64.558594 C 534.867188 64.558594 538.191406 63.289062 540.726562 60.753906 C 545.796875 55.683594 545.796875 47.460938 540.726562 42.390625 C 513.464844 15.132812 477.226562 0.117188 438.675781 0.117188 C 400.128906 0.117188 363.882812 15.132812 336.625 42.390625 C 331.554688 47.460938 331.554688 55.683594 336.625 60.753906 C 341.699219 65.828125 349.921875 65.828125 354.992188 60.753906 Z M 354.992188 60.753906 " fill-opacity="1" fill-rule="nonzero"/><path fill="#43b1ca" d="M 480.757812 120.722656 C 485.828125 115.652344 485.828125 107.425781 480.757812 102.355469 C 469.519531 91.117188 454.574219 84.925781 438.675781 84.925781 C 422.78125 84.925781 407.835938 91.117188 396.597656 102.355469 C 391.523438 107.425781 391.523438 115.652344 396.597656 120.722656 C 399.132812 123.257812 402.457031 124.527344 405.777344 124.527344 C 409.101562 124.527344 412.425781 123.257812 414.960938 120.722656 C 421.296875 114.386719 429.71875 110.898438 438.675781 110.898438 C 447.636719 110.898438 456.058594 114.386719 462.394531 120.722656 C 467.464844 125.792969 475.6875 125.792969 480.757812 120.722656 Z M 480.757812 120.722656 " fill-opacity="1" fill-rule="nonzero"/><path fill="#43b1ca" d="M 501.085938 95.019531 C 504.410156 95.019531 507.730469 93.75 510.269531 91.214844 C 515.339844 86.144531 515.339844 77.921875 510.269531 72.847656 C 491.144531 53.726562 465.71875 43.195312 438.675781 43.195312 C 411.632812 43.195312 386.207031 53.726562 367.085938 72.847656 C 362.015625 77.921875 362.015625 86.144531 367.085938 91.214844 C 372.160156 96.289062 380.382812 96.289062 385.453125 91.214844 C 399.671875 77 418.570312 69.167969 438.679688 69.167969 C 458.789062 69.167969 477.6875 76.996094 491.90625 91.214844 C 494.4375 93.75 497.761719 95.019531 501.085938 95.019531 Z M 501.085938 95.019531 " fill-opacity="1" fill-rule="nonzero"/><path fill="#43b1ca" d="M 409.097656 289.484375 L 465.878906 289.484375 C 473.769531 289.484375 480.164062 283.089844 480.164062 275.199219 C 480.164062 267.3125 473.769531 260.914062 465.878906 260.914062 L 409.097656 260.914062 C 401.210938 260.914062 394.8125 267.308594 394.8125 275.199219 C 394.8125 283.089844 401.207031 289.484375 409.097656 289.484375 Z M 409.097656 289.484375 " fill-opacity="1" fill-rule="nonzero"/><path fill="#43b1ca" d="M 457.765625 735.519531 C 457.765625 736.210938 457.734375 736.898438 457.664062 737.589844 C 457.597656 738.277344 457.496094 738.960938 457.359375 739.636719 C 457.226562 740.316406 457.058594 740.988281 456.855469 741.648438 C 456.65625 742.3125 456.421875 742.960938 456.160156 743.601562 C 455.894531 744.238281 455.597656 744.863281 455.273438 745.472656 C 454.945312 746.085938 454.589844 746.675781 454.207031 747.253906 C 453.824219 747.828125 453.410156 748.382812 452.972656 748.917969 C 452.535156 749.453125 452.070312 749.964844 451.582031 750.453125 C 451.089844 750.941406 450.578125 751.40625 450.042969 751.84375 C 449.507812 752.285156 448.953125 752.695312 448.378906 753.078125 C 447.804688 753.464844 447.210938 753.820312 446.601562 754.144531 C 445.992188 754.472656 445.367188 754.765625 444.726562 755.03125 C 444.089844 755.296875 443.4375 755.527344 442.777344 755.730469 C 442.113281 755.929688 441.445312 756.097656 440.765625 756.234375 C 440.085938 756.367188 439.402344 756.46875 438.714844 756.539062 C 438.027344 756.605469 437.335938 756.640625 436.644531 756.640625 C 435.953125 756.640625 435.261719 756.605469 434.574219 756.539062 C 433.886719 756.46875 433.203125 756.367188 432.523438 756.234375 C 431.847656 756.097656 431.175781 755.929688 430.515625 755.730469 C 429.851562 755.527344 429.203125 755.296875 428.5625 755.03125 C 427.921875 754.765625 427.296875 754.472656 426.6875 754.144531 C 426.078125 753.820312 425.484375 753.464844 424.910156 753.078125 C 424.335938 752.695312 423.78125 752.285156 423.246094 751.84375 C 422.710938 751.40625 422.199219 750.941406 421.710938 750.453125 C 421.222656 749.964844 420.757812 749.453125 420.316406 748.917969 C 419.878906 748.382812 419.46875 747.828125 419.082031 747.253906 C 418.699219 746.675781 418.34375 746.085938 418.019531 745.472656 C 417.691406 744.863281 417.394531 744.238281 417.132812 743.601562 C 416.867188 742.960938 416.632812 742.3125 416.433594 741.648438 C 416.234375 740.988281 416.066406 740.316406 415.929688 739.636719 C 415.792969 738.960938 415.695312 738.277344 415.625 737.589844 C 415.558594 736.898438 415.523438 736.210938 415.523438 735.519531 C 415.523438 734.824219 415.558594 734.136719 415.625 733.449219 C 415.695312 732.757812 415.792969 732.074219 415.929688 731.398438 C 416.066406 730.71875 416.234375 730.046875 416.433594 729.386719 C 416.632812 728.722656 416.867188 728.074219 417.132812 727.433594 C 417.394531 726.796875 417.691406 726.171875 418.019531 725.5625 C 418.34375 724.953125 418.699219 724.359375 419.082031 723.785156 C 419.46875 723.207031 419.878906 722.652344 420.316406 722.117188 C 420.757812 721.582031 421.222656 721.070312 421.710938 720.582031 C 422.199219 720.09375 422.710938 719.628906 423.246094 719.191406 C 423.78125 718.753906 424.335938 718.339844 424.910156 717.957031 C 425.484375 717.570312 426.078125 717.214844 426.6875 716.890625 C 427.296875 716.5625 427.921875 716.269531 428.5625 716.003906 C 429.203125 715.738281 429.851562 715.507812 430.515625 715.304688 C 431.175781 715.105469 431.847656 714.9375 432.523438 714.800781 C 433.203125 714.667969 433.886719 714.566406 434.574219 714.5 C 435.261719 714.429688 435.953125 714.398438 436.644531 714.394531 C 437.335938 714.398438 438.027344 714.429688 438.714844 714.5 C 439.402344 714.566406 440.085938 714.667969 440.765625 714.800781 C 441.445312 714.9375 442.113281 715.105469 442.777344 715.304688 C 443.4375 715.507812 444.089844 715.738281 444.726562 716.003906 C 445.367188 716.269531 445.992188 716.5625 446.601562 716.890625 C 447.210938 717.214844 447.804688 717.570312 448.378906 717.957031 C 448.953125 718.339844 449.507812 718.753906 450.042969 719.191406 C 450.578125 719.628906 451.089844 720.09375 451.582031 720.582031 C 452.070312 721.070312 452.535156 721.582031 452.972656 722.117188 C 453.410156 722.652344 453.824219 723.207031 454.207031 723.785156 C 454.589844 724.359375 454.945312 724.953125 455.273438 725.5625 C 455.597656 726.171875 455.894531 726.796875 456.160156 727.433594 C 456.421875 728.074219 456.65625 728.726562 456.855469 729.386719 C 457.058594 730.046875 457.226562 730.71875 457.359375 731.398438 C 457.496094 732.074219 457.597656 732.757812 457.664062 733.449219 C 457.734375 734.136719 457.765625 734.824219 457.765625 735.519531 Z M 457.765625 735.519531 " fill-opacity="1" fill-rule="nonzero"/><path fill="#43b1ca" d="M 396.390625 340.117188 L 430.863281 340.117188 L 430.863281 368.691406 L 396.390625 368.691406 Z M 396.390625 340.117188 " fill-opacity="1" fill-rule="nonzero"/><path fill="#43b1ca" d="M 459.578125 340.117188 L 537.816406 340.117188 L 537.816406 368.691406 L 459.578125 368.691406 Z M 459.578125 340.117188 " fill-opacity="1" fill-rule="nonzero"/><path fill="#43b1ca" d="M 394.6875 388.710938 L 537.816406 388.710938 L 537.816406 417.28125 L 394.6875 417.28125 Z M 394.6875 388.710938 " fill-opacity="1" fill-rule="nonzero"/><path fill="#43b1ca" d="M 394.6875 437.300781 L 537.816406 437.300781 L 537.816406 465.871094 L 394.6875 465.871094 Z M 394.6875 437.300781 " fill-opacity="1" fill-rule="nonzero"/><path fill="#43b1ca" d="M 394.890625 650.144531 L 487.15625 650.144531 L 487.15625 678.71875 L 394.890625 678.71875 Z M 394.890625 650.144531 " fill-opacity="1" fill-rule="nonzero"/><path fill="#43b1ca" d="M 394.890625 603.503906 L 487.15625 603.503906 L 487.15625 632.078125 L 394.890625 632.078125 Z M 394.890625 603.503906 " fill-opacity="1" fill-rule="nonzero"/><path fill="#43b1ca" d="M 336.449219 650.144531 L 366.449219 650.144531 L 366.449219 678.71875 L 336.449219 678.71875 Z M 336.449219 650.144531 " fill-opacity="1" fill-rule="nonzero"/></svg>