<svg xmlns="http://www.w3.org/2000/svg" xmlns:xlink="http://www.w3.org/1999/xlink" width="1080" zoomAndPan="magnify" viewBox="0 0 810 809.999993" height="1080" preserveAspectRatio="xMidYMid meet" version="1.0"><defs><clipPath id="52f6fb926a"><path d="M 496 599 L 745 599 L 745 777 L 496 777 Z M 496 599 " clip-rule="nonzero"/></clipPath><clipPath id="7bfc33874b"><path d="M 160 615 L 297 615 L 297 777 L 160 777 Z M 160 615 " clip-rule="nonzero"/></clipPath></defs><path fill="#43b1ca" d="M 535.410156 77.9375 C 535.410156 82.417969 539.042969 86.050781 543.523438 86.050781 L 570.277344 86.050781 C 574.757812 86.050781 578.386719 82.417969 578.386719 77.9375 C 578.386719 73.460938 574.757812 69.828125 570.277344 69.828125 L 543.523438 69.828125 C 539.042969 69.828125 535.410156 73.460938 535.410156 77.9375 Z M 535.410156 77.9375 " fill-opacity="1" fill-rule="nonzero"/><path fill="#43b1ca" d="M 540.84375 67.503906 C 542.550781 67.503906 544.273438 66.964844 545.734375 65.859375 L 567.0625 49.699219 C 570.632812 46.996094 571.332031 41.910156 568.628906 38.335938 C 565.921875 34.765625 560.835938 34.066406 557.265625 36.769531 L 535.941406 52.929688 C 532.371094 55.632812 531.667969 60.71875 534.375 64.289062 C 535.96875 66.394531 538.394531 67.503906 540.84375 67.503906 Z M 540.84375 67.503906 " fill-opacity="1" fill-rule="nonzero"/><path fill="#43b1ca" d="M 567.0625 106.179688 L 545.738281 90.023438 C 542.167969 87.316406 537.082031 88.019531 534.375 91.589844 C 531.671875 95.160156 532.371094 100.246094 535.941406 102.953125 L 557.269531 119.109375 C 558.734375 120.21875 560.453125 120.753906 562.160156 120.753906 C 564.609375 120.753906 567.035156 119.648438 568.628906 117.542969 C 571.332031 113.972656 570.632812 108.886719 567.0625 106.179688 Z M 567.0625 106.179688 " fill-opacity="1" fill-rule="nonzero"/><path fill="#43b1ca" d="M 801.875 290.042969 L 719.039062 290.042969 C 718.5625 288.75 718.074219 287.460938 717.585938 286.175781 L 707.519531 290.042969 L 659.6875 290.042969 C 655.207031 290.042969 651.578125 293.671875 651.578125 298.152344 L 651.578125 407.328125 C 651.578125 411.804688 655.207031 415.4375 659.6875 415.4375 L 692.46875 415.4375 L 692.46875 452.5625 C 692.46875 455.90625 694.519531 458.90625 697.632812 460.121094 C 698.589844 460.492188 699.589844 460.675781 700.578125 460.675781 C 702.800781 460.675781 704.980469 459.757812 706.546875 458.054688 L 721.308594 442.015625 C 720.914062 445.417969 720.46875 448.828125 719.972656 452.195312 L 736.015625 454.566406 C 736.726562 449.769531 737.339844 444.886719 737.839844 440.054688 L 724.390625 438.664062 L 733.75 428.492188 L 738.804688 428.84375 C 738.949219 426.769531 739.074219 424.667969 739.179688 422.589844 L 745.765625 415.4375 L 801.878906 415.4375 C 806.355469 415.4375 809.988281 411.804688 809.988281 407.324219 L 809.988281 298.148438 C 809.984375 293.671875 806.351562 290.042969 801.875 290.042969 Z M 793.765625 399.21875 L 742.203125 399.21875 C 739.933594 399.21875 737.773438 400.167969 736.234375 401.835938 L 708.691406 431.773438 L 708.691406 407.328125 C 708.691406 402.847656 705.058594 399.21875 700.582031 399.21875 L 667.796875 399.21875 L 667.796875 306.261719 L 793.765625 306.261719 Z M 793.765625 399.21875 " fill-opacity="1" fill-rule="nonzero"/><path fill="#43b1ca" d="M 684.4375 391.503906 C 688.648438 393.035156 693.300781 390.859375 694.828125 386.652344 L 698.234375 377.273438 L 717.75 377.273438 L 721.15625 386.652344 C 722.351562 389.949219 725.464844 391.996094 728.777344 391.996094 C 729.695312 391.996094 730.632812 391.839844 731.546875 391.507812 C 735.757812 389.976562 737.929688 385.328125 736.398438 381.117188 L 735.9375 379.84375 C 739.621094 387.457031 747.425781 392.726562 756.433594 392.726562 C 760.140625 392.726562 763.644531 391.832031 766.738281 390.253906 C 768.117188 391.34375 769.859375 391.992188 771.753906 391.992188 C 776.230469 391.992188 779.863281 388.363281 779.863281 383.882812 L 779.863281 326.652344 C 779.863281 322.171875 776.230469 318.542969 771.753906 318.542969 C 767.273438 318.542969 763.644531 322.171875 763.644531 326.652344 L 763.644531 348.402344 C 761.375 347.644531 758.953125 347.230469 756.433594 347.230469 C 743.890625 347.230469 733.6875 357.4375 733.6875 369.976562 C 733.6875 371.894531 733.925781 373.753906 734.375 375.535156 L 715.617188 323.882812 C 714.453125 320.679688 711.40625 318.542969 707.992188 318.542969 C 704.582031 318.542969 701.535156 320.679688 700.371094 323.882812 L 679.582031 381.117188 C 678.050781 385.324219 680.226562 389.976562 684.4375 391.503906 Z M 756.433594 363.449219 C 760.03125 363.449219 762.957031 366.378906 762.957031 369.976562 C 762.957031 373.574219 760.03125 376.503906 756.433594 376.503906 C 752.832031 376.503906 749.90625 373.574219 749.90625 369.976562 C 749.902344 366.378906 752.832031 363.449219 756.433594 363.449219 Z M 707.992188 350.410156 L 711.855469 361.050781 L 704.125 361.050781 Z M 707.992188 350.410156 " fill-opacity="1" fill-rule="nonzero"/><path fill="#43b1ca" d="M 113.210938 368.328125 L 68.464844 342.492188 C 65.957031 341.042969 62.863281 341.042969 60.355469 342.492188 C 57.847656 343.941406 56.300781 346.617188 56.300781 349.515625 L 56.300781 401.183594 C 56.300781 404.078125 57.847656 406.757812 60.355469 408.207031 C 61.609375 408.929688 63.011719 409.292969 64.410156 409.292969 C 65.8125 409.292969 67.210938 408.929688 68.464844 408.207031 L 113.210938 382.371094 C 115.71875 380.921875 117.265625 378.246094 117.265625 375.347656 C 117.265625 372.453125 115.722656 369.777344 113.210938 368.328125 Z M 72.519531 387.136719 L 72.519531 363.5625 L 92.9375 375.351562 Z M 72.519531 387.136719 " fill-opacity="1" fill-rule="nonzero"/><path fill="#43b1ca" d="M 124.398438 319.433594 L 138.511719 319.433594 L 138.511719 332.074219 L 124.398438 332.074219 Z M 124.398438 319.433594 " fill-opacity="1" fill-rule="nonzero"/><path fill="#43b1ca" d="M 24.527344 319.433594 L 38.640625 319.433594 L 38.640625 332.074219 L 24.527344 332.074219 Z M 24.527344 319.433594 " fill-opacity="1" fill-rule="nonzero"/><path fill="#43b1ca" d="M 49.496094 319.433594 L 63.609375 319.433594 L 63.609375 332.074219 L 49.496094 332.074219 Z M 49.496094 319.433594 " fill-opacity="1" fill-rule="nonzero"/><path fill="#43b1ca" d="M 99.433594 319.433594 L 113.542969 319.433594 L 113.542969 332.074219 L 99.433594 332.074219 Z M 99.433594 319.433594 " fill-opacity="1" fill-rule="nonzero"/><path fill="#43b1ca" d="M 74.464844 319.433594 L 88.574219 319.433594 L 88.574219 332.074219 L 74.464844 332.074219 Z M 74.464844 319.433594 " fill-opacity="1" fill-rule="nonzero"/><path fill="#43b1ca" d="M 74.464844 419.496094 L 88.574219 419.496094 L 88.574219 432.136719 L 74.464844 432.136719 Z M 74.464844 419.496094 " fill-opacity="1" fill-rule="nonzero"/><path fill="#43b1ca" d="M 124.398438 419.496094 L 138.511719 419.496094 L 138.511719 432.136719 L 124.398438 432.136719 Z M 124.398438 419.496094 " fill-opacity="1" fill-rule="nonzero"/><path fill="#43b1ca" d="M 49.496094 419.496094 L 63.609375 419.496094 L 63.609375 432.136719 L 49.496094 432.136719 Z M 49.496094 419.496094 " fill-opacity="1" fill-rule="nonzero"/><path fill="#43b1ca" d="M 99.433594 419.496094 L 113.542969 419.496094 L 113.542969 432.136719 L 99.433594 432.136719 Z M 99.433594 419.496094 " fill-opacity="1" fill-rule="nonzero"/><path fill="#43b1ca" d="M 24.527344 419.496094 L 38.640625 419.496094 L 38.640625 432.136719 L 24.527344 432.136719 Z M 24.527344 419.496094 " fill-opacity="1" fill-rule="nonzero"/><path fill="#43b1ca" d="M 185.496094 673.394531 C 185.496094 677.347656 188.699219 680.554688 192.65625 680.554688 L 261.1875 680.554688 C 265.140625 680.554688 268.347656 677.347656 268.347656 673.394531 C 268.347656 669.4375 265.140625 666.230469 261.1875 666.230469 L 192.65625 666.230469 C 188.699219 666.230469 185.496094 669.4375 185.496094 673.394531 Z M 185.496094 673.394531 " fill-opacity="1" fill-rule="nonzero"/><path fill="#43b1ca" d="M 261.183594 690.519531 L 192.65625 690.519531 C 188.699219 690.519531 185.496094 693.726562 185.496094 697.683594 C 185.496094 701.640625 188.699219 704.847656 192.65625 704.847656 L 261.1875 704.847656 C 265.140625 704.847656 268.347656 701.640625 268.347656 697.683594 C 268.347656 693.726562 265.140625 690.519531 261.183594 690.519531 Z M 261.183594 690.519531 " fill-opacity="1" fill-rule="nonzero"/><path fill="#43b1ca" d="M 261.183594 714.8125 L 192.65625 714.8125 C 188.699219 714.8125 185.496094 718.019531 185.496094 721.976562 C 185.496094 725.933594 188.699219 729.140625 192.65625 729.140625 L 261.1875 729.140625 C 265.140625 729.140625 268.347656 725.933594 268.347656 721.976562 C 268.347656 718.019531 265.140625 714.8125 261.183594 714.8125 Z M 261.183594 714.8125 " fill-opacity="1" fill-rule="nonzero"/><path fill="#43b1ca" d="M 261.183594 739.105469 L 192.65625 739.105469 C 188.699219 739.105469 185.496094 742.3125 185.496094 746.269531 C 185.496094 750.222656 188.699219 753.429688 192.65625 753.429688 L 261.1875 753.429688 C 265.140625 753.429688 268.347656 750.222656 268.347656 746.269531 C 268.347656 742.3125 265.140625 739.105469 261.183594 739.105469 Z M 261.183594 739.105469 " fill-opacity="1" fill-rule="nonzero"/><g clip-path="url(#52f6fb926a)"><path fill="#43b1ca" d="M 739.984375 648.050781 L 713.433594 636.609375 L 721.652344 608.890625 C 722.453125 606.1875 721.59375 603.265625 719.457031 601.425781 C 717.320312 599.585938 714.300781 599.171875 711.75 600.367188 L 669.335938 620.21875 C 667.484375 621.089844 666.089844 622.707031 665.507812 624.671875 L 656.398438 655.398438 L 644.445312 660.992188 C 641.710938 656.308594 638.488281 651.929688 634.804688 647.890625 C 635.78125 646.976562 636.75 646.054688 637.707031 645.128906 L 626.453125 633.449219 C 625.195312 634.660156 623.914062 635.875 622.628906 637.070312 C 618.019531 633.773438 613.066406 630.992188 607.800781 628.765625 C 598.277344 624.738281 588.167969 622.695312 577.746094 622.695312 C 567.328125 622.695312 557.21875 624.738281 547.691406 628.765625 C 538.5 632.65625 530.242188 638.222656 523.152344 645.308594 C 516.066406 652.398438 510.5 660.652344 506.609375 669.847656 C 502.582031 679.375 500.539062 689.484375 500.539062 699.902344 C 500.539062 702.550781 500.671875 705.179688 500.9375 707.785156 C 499.316406 708.289062 497.695312 708.78125 496.085938 709.25 L 500.648438 724.816406 C 501.855469 724.460938 503.070312 724.097656 504.285156 723.726562 C 504.96875 725.828125 505.742188 727.910156 506.609375 729.957031 C 510.5 739.152344 516.066406 747.410156 523.152344 754.496094 C 530.242188 761.585938 538.5 767.152344 547.691406 771.039062 C 557.21875 775.070312 567.328125 777.113281 577.746094 777.113281 C 588.167969 777.113281 598.277344 775.070312 607.800781 771.039062 C 616.996094 767.152344 625.253906 761.585938 632.339844 754.496094 C 639.429688 747.410156 644.996094 739.152344 648.882812 729.957031 C 652.914062 720.433594 654.957031 710.324219 654.957031 699.902344 C 654.957031 690.976562 653.457031 682.273438 650.492188 673.976562 L 662.46875 668.367188 L 691.902344 681.054688 C 692.808594 681.445312 693.773438 681.640625 694.738281 681.640625 C 695.773438 681.640625 696.8125 681.414062 697.773438 680.964844 L 740.183594 661.109375 C 742.738281 659.917969 744.351562 657.335938 744.308594 654.511719 C 744.265625 651.695312 742.574219 649.164062 739.984375 648.050781 Z M 622.210938 744.371094 C 610.335938 756.246094 594.542969 762.789062 577.746094 762.789062 C 560.949219 762.789062 545.15625 756.246094 533.28125 744.371094 C 521.402344 732.492188 514.863281 716.703125 514.863281 699.902344 C 514.863281 683.105469 521.402344 667.316406 533.28125 655.4375 C 545.15625 643.5625 560.949219 637.019531 577.746094 637.019531 C 594.542969 637.019531 610.335938 643.5625 622.210938 655.4375 C 625.769531 658.996094 628.84375 662.90625 631.410156 667.089844 L 621.078125 671.925781 C 619.117188 668.898438 616.824219 666.054688 614.210938 663.441406 C 604.472656 653.699219 591.519531 648.335938 577.746094 648.335938 C 563.976562 648.335938 551.023438 653.699219 541.285156 663.441406 C 531.546875 673.183594 526.179688 686.132812 526.179688 699.902344 C 526.179688 713.675781 531.542969 726.628906 541.285156 736.367188 C 551.027344 746.109375 563.976562 751.472656 577.746094 751.472656 C 591.519531 751.472656 604.472656 746.109375 614.210938 736.367188 C 623.949219 726.625 629.316406 713.675781 629.316406 699.902344 C 629.316406 694.75 628.566406 689.714844 627.117188 684.917969 L 637.457031 680.078125 C 639.546875 686.386719 640.632812 693.0625 640.632812 699.902344 C 640.632812 716.703125 634.089844 732.492188 622.210938 744.371094 Z M 571.804688 702.902344 C 573.023438 705.503906 575.601562 707.027344 578.296875 707.027344 C 579.316406 707.027344 580.347656 706.8125 581.328125 706.351562 L 588.992188 702.765625 C 587.714844 707.785156 583.160156 711.507812 577.746094 711.507812 C 571.351562 711.507812 566.144531 706.304688 566.144531 699.90625 C 566.144531 693.507812 571.351562 688.304688 577.746094 688.304688 C 579.714844 688.304688 581.566406 688.796875 583.191406 689.664062 L 575.253906 693.378906 C 571.671875 695.054688 570.128906 699.316406 571.804688 702.902344 Z M 577.746094 673.976562 C 563.449219 673.976562 551.820312 685.609375 551.820312 699.90625 C 551.820312 714.203125 563.449219 725.832031 577.746094 725.832031 C 592.042969 725.832031 603.675781 714.203125 603.675781 699.90625 C 603.675781 698.585938 603.578125 697.292969 603.386719 696.027344 L 613.933594 691.089844 C 614.625 693.917969 614.992188 696.867188 614.992188 699.90625 C 614.992188 720.441406 598.285156 737.148438 577.75 737.148438 C 557.214844 737.148438 540.507812 720.441406 540.507812 699.90625 C 540.507812 679.371094 557.214844 662.664062 577.75 662.664062 C 590.144531 662.664062 601.140625 668.75 607.917969 678.09375 L 597.402344 683.011719 C 592.640625 677.484375 585.597656 673.976562 577.746094 673.976562 Z M 678.328125 631.828125 L 703.390625 620.097656 L 698.8125 635.542969 L 673.746094 647.273438 Z M 694.613281 666.628906 L 679.816406 660.25 L 704.882812 648.519531 L 719.679688 654.898438 Z M 694.613281 666.628906 " fill-opacity="1" fill-rule="nonzero"/></g><path fill="#43b1ca" d="M 503.140625 591.175781 C 503.140625 586.453125 499.308594 582.621094 494.585938 582.621094 L 456.574219 582.621094 L 456.574219 547.449219 L 590.757812 547.449219 C 595.480469 547.449219 599.3125 543.617188 599.3125 538.894531 L 599.3125 269.1875 C 599.3125 264.464844 595.480469 260.632812 590.757812 260.632812 L 228.480469 260.632812 C 223.757812 260.632812 219.925781 264.464844 219.925781 269.1875 L 219.925781 538.898438 C 219.925781 543.621094 223.757812 547.449219 228.480469 547.449219 L 362.664062 547.449219 L 362.664062 582.625 L 324.652344 582.625 C 319.929688 582.625 316.097656 586.453125 316.097656 591.175781 C 316.097656 595.898438 319.929688 599.730469 324.652344 599.730469 L 494.589844 599.730469 C 499.3125 599.726562 503.140625 595.898438 503.140625 591.175781 Z M 237.03125 277.738281 L 582.207031 277.738281 L 582.207031 480.292969 L 237.03125 480.292969 Z M 439.46875 582.625 L 379.765625 582.625 L 379.765625 547.449219 L 439.46875 547.449219 Z M 448.023438 530.011719 L 371.21875 530.011719 C 370.398438 530.011719 369.605469 530.128906 368.855469 530.34375 L 237.03125 530.34375 L 237.03125 497.398438 L 582.207031 497.398438 L 582.207031 530.34375 L 450.382812 530.34375 C 449.632812 530.128906 448.84375 530.011719 448.023438 530.011719 Z M 448.023438 530.011719 " fill-opacity="1" fill-rule="nonzero"/><path fill="#43b1ca" d="M 142.988281 230.65625 L 129.472656 221.6875 C 126.90625 225.558594 124.378906 229.539062 121.976562 233.515625 L 135.855469 241.910156 C 138.140625 238.128906 140.542969 234.34375 142.988281 230.65625 Z M 142.988281 230.65625 " fill-opacity="1" fill-rule="nonzero"/><path fill="#43b1ca" d="M 188.304688 176.558594 L 177.101562 164.828125 C 173.742188 168.039062 170.40625 171.363281 167.183594 174.707031 L 178.867188 185.957031 C 181.933594 182.773438 185.105469 179.613281 188.304688 176.558594 Z M 188.304688 176.558594 " fill-opacity="1" fill-rule="nonzero"/><path fill="#43b1ca" d="M 205.933594 160.929688 L 195.628906 148.402344 C 192.042969 151.351562 188.46875 154.421875 185.007812 157.519531 L 195.824219 169.605469 C 199.121094 166.652344 202.519531 163.734375 205.933594 160.929688 Z M 205.933594 160.929688 " fill-opacity="1" fill-rule="nonzero"/><path fill="#43b1ca" d="M 119.925781 271.738281 L 105.226562 264.875 C 103.261719 269.089844 101.355469 273.402344 99.570312 277.695312 L 114.546875 283.929688 C 116.246094 279.847656 118.054688 275.746094 119.925781 271.738281 Z M 119.925781 271.738281 " fill-opacity="1" fill-rule="nonzero"/><path fill="#43b1ca" d="M 171.878906 193.453125 L 159.839844 182.582031 C 156.726562 186.03125 153.640625 189.59375 150.675781 193.167969 L 163.160156 203.523438 C 165.980469 200.125 168.914062 196.734375 171.878906 193.453125 Z M 171.878906 193.453125 " fill-opacity="1" fill-rule="nonzero"/><path fill="#43b1ca" d="M 130.691406 250.765625 L 116.546875 242.828125 C 114.269531 246.882812 112.050781 251.039062 109.949219 255.183594 L 124.414062 262.523438 C 126.414062 258.578125 128.527344 254.625 130.691406 250.765625 Z M 130.691406 250.765625 " fill-opacity="1" fill-rule="nonzero"/><path fill="#43b1ca" d="M 286.445312 112.683594 L 280.265625 97.6875 C 275.976562 99.453125 271.660156 101.335938 267.445312 103.289062 L 274.25 118.011719 C 278.261719 116.160156 282.363281 114.367188 286.445312 112.683594 Z M 286.445312 112.683594 " fill-opacity="1" fill-rule="nonzero"/><path fill="#43b1ca" d="M 331.136719 98.085938 L 327.269531 82.332031 C 322.761719 83.441406 318.214844 84.660156 313.761719 85.957031 L 318.292969 101.53125 C 322.527344 100.296875 326.851562 99.140625 331.136719 98.085938 Z M 331.136719 98.085938 " fill-opacity="1" fill-rule="nonzero"/><path fill="#43b1ca" d="M 265.03125 122.457031 L 257.753906 107.960938 C 253.605469 110.042969 249.441406 112.246094 245.382812 114.503906 L 253.265625 128.679688 C 257.125 126.53125 261.085938 124.433594 265.03125 122.457031 Z M 265.03125 122.457031 " fill-opacity="1" fill-rule="nonzero"/><path fill="#43b1ca" d="M 156.742188 211.519531 L 143.929688 201.570312 C 141.078125 205.238281 138.265625 209.019531 135.574219 212.804688 L 148.792969 222.210938 C 151.355469 218.609375 154.03125 215.011719 156.742188 211.519531 Z M 156.742188 211.519531 " fill-opacity="1" fill-rule="nonzero"/><path fill="#43b1ca" d="M 308.519531 104.546875 L 303.480469 89.128906 C 299.070312 90.570312 294.628906 92.125 290.277344 93.753906 L 295.964844 108.945312 C 300.101562 107.398438 304.324219 105.917969 308.519531 104.546875 Z M 308.519531 104.546875 " fill-opacity="1" fill-rule="nonzero"/><path fill="#43b1ca" d="M 224.667969 146.648438 L 215.316406 133.394531 C 211.523438 136.070312 207.730469 138.863281 204.050781 141.695312 L 213.949219 154.550781 C 217.449219 151.851562 221.054688 149.195312 224.667969 146.648438 Z M 224.667969 146.648438 " fill-opacity="1" fill-rule="nonzero"/><path fill="#43b1ca" d="M 244.402344 133.796875 L 236.0625 119.886719 C 232.078125 122.273438 228.089844 124.777344 224.210938 127.328125 L 233.128906 140.878906 C 236.820312 138.453125 240.609375 136.066406 244.402344 133.796875 Z M 244.402344 133.796875 " fill-opacity="1" fill-rule="nonzero"/><path fill="#43b1ca" d="M 343.078125 95.402344 C 348.496094 107.285156 360.050781 115.804688 373.667969 116.878906 L 373.667969 165.070312 C 373.667969 175.957031 382.527344 184.816406 393.414062 184.816406 L 395.332031 184.816406 C 406.21875 184.816406 415.074219 175.957031 415.074219 165.070312 L 415.074219 116.992188 L 429.769531 116.992188 C 430.066406 117.085938 430.367188 117.164062 430.675781 117.226562 C 454.125 121.828125 475.875 132.742188 493.578125 148.792969 L 503.019531 157.351562 C 504.542969 158.730469 506.492188 159.449219 508.46875 159.449219 C 509.578125 159.449219 510.699219 159.222656 511.753906 158.757812 C 514.683594 157.457031 516.578125 154.550781 516.578125 151.34375 L 516.59375 103.4375 C 526.199219 100.0625 533.101562 90.902344 533.101562 80.160156 C 533.101562 69.414062 526.199219 60.257812 516.59375 56.878906 L 516.578125 8.734375 C 516.578125 5.527344 514.683594 2.621094 511.753906 1.324219 C 508.820312 0.0234375 505.398438 0.574219 503.019531 2.726562 L 493.578125 11.285156 C 475.875 27.332031 454.125 38.25 430.675781 42.851562 C 430.078125 42.96875 429.511719 43.148438 428.972656 43.386719 L 376.59375 43.386719 C 356.523438 43.386719 340.15625 59.53125 339.796875 79.515625 C 339.15625 79.648438 338.515625 79.78125 337.878906 79.914062 L 341.226562 95.785156 C 341.839844 95.65625 342.460938 95.527344 343.078125 95.402344 Z M 516.542969 78.984375 C 516.582031 78.660156 516.601562 78.332031 516.601562 78 L 516.601562 71.335938 C 518.972656 73.535156 520.460938 76.675781 520.460938 80.160156 C 520.460938 83.644531 518.972656 86.785156 516.597656 88.984375 L 516.601562 82.082031 C 516.601562 81.746094 516.578125 81.417969 516.539062 81.09375 L 516.539062 78.984375 Z M 440.382812 82.078125 L 440.382812 57.316406 C 462.445312 51.929688 482.976562 41.519531 500.363281 26.894531 L 500.378906 77.011719 C 500.339844 77.335938 500.320312 77.667969 500.320312 78.003906 L 500.320312 82.082031 C 500.320312 82.414062 500.339844 82.746094 500.378906 83.070312 L 500.363281 133.191406 C 482.976562 118.566406 462.445312 108.152344 440.382812 102.765625 Z M 398.855469 165.070312 C 398.855469 167.015625 397.273438 168.59375 395.332031 168.59375 L 393.414062 168.59375 C 391.46875 168.59375 389.890625 167.011719 389.890625 165.070312 L 389.890625 117.054688 L 398.855469 117.054688 Z M 376.589844 59.605469 L 424.125 59.605469 L 424.125 78 C 424.125 78.253906 424.136719 78.503906 424.160156 78.753906 L 424.160156 81.324219 C 424.136719 81.574219 424.125 81.824219 424.125 82.078125 L 424.125 100.773438 L 376.589844 100.773438 C 365.242188 100.773438 356.007812 91.542969 356.007812 80.191406 C 356.007812 68.839844 365.242188 59.605469 376.589844 59.605469 Z M 376.589844 59.605469 " fill-opacity="1" fill-rule="nonzero"/><path fill="#43b1ca" d="M 97.328125 471.8125 L 81.464844 475.195312 C 82.445312 479.796875 83.539062 484.4375 84.714844 488.988281 L 100.421875 484.929688 C 99.300781 480.601562 98.261719 476.1875 97.328125 471.8125 Z M 97.328125 471.8125 " fill-opacity="1" fill-rule="nonzero"/><path fill="#43b1ca" d="M 120.050781 539.488281 L 105.359375 546.367188 C 107.355469 550.625 109.46875 554.898438 111.640625 559.070312 L 126.027344 551.574219 C 123.957031 547.605469 121.949219 543.542969 120.050781 539.488281 Z M 120.050781 539.488281 " fill-opacity="1" fill-rule="nonzero"/><path fill="#43b1ca" d="M 103.179688 494.925781 L 87.617188 499.5 C 88.945312 504.011719 90.390625 508.558594 91.90625 513.007812 L 107.257812 507.769531 C 105.8125 503.539062 104.441406 499.214844 103.179688 494.925781 Z M 103.179688 494.925781 " fill-opacity="1" fill-rule="nonzero"/><path fill="#43b1ca" d="M 110.769531 517.527344 L 95.601562 523.269531 C 97.265625 527.664062 99.050781 532.089844 100.902344 536.414062 L 115.8125 530.023438 C 114.046875 525.914062 112.351562 521.707031 110.769531 517.527344 Z M 110.769531 517.527344 " fill-opacity="1" fill-rule="nonzero"/><path fill="#43b1ca" d="M 143.457031 581.011719 L 129.96875 590.019531 C 132.578125 593.929688 135.308594 597.839844 138.085938 601.632812 L 151.179688 592.0625 C 148.542969 588.449219 145.941406 584.730469 143.457031 581.011719 Z M 143.457031 581.011719 " fill-opacity="1" fill-rule="nonzero"/><path fill="#43b1ca" d="M 157.4375 600.335938 L 144.660156 610.328125 C 147.558594 614.03125 150.574219 617.722656 153.628906 621.304688 L 165.96875 610.777344 C 163.066406 607.371094 160.195312 603.859375 157.4375 600.335938 Z M 157.4375 600.335938 " fill-opacity="1" fill-rule="nonzero"/><path fill="#43b1ca" d="M 130.96875 560.691406 L 116.839844 568.65625 C 119.148438 572.75 121.578125 576.855469 124.058594 580.851562 L 137.835938 572.289062 C 135.476562 568.488281 133.164062 564.585938 130.96875 560.691406 Z M 130.96875 560.691406 " fill-opacity="1" fill-rule="nonzero"/><path fill="#43b1ca" d="M 94.761719 458.347656 L 139.125 458.347656 C 153.941406 458.347656 165.992188 446.296875 165.992188 431.484375 L 165.992188 319.214844 C 165.992188 304.402344 153.941406 292.351562 139.125 292.351562 L 107.855469 292.351562 L 95.59375 287.710938 C 95.011719 289.242188 94.4375 290.796875 93.875 292.351562 L 26.859375 292.351562 C 12.046875 292.351562 -0.0078125 304.402344 -0.0078125 319.214844 L -0.0078125 431.484375 C -0.0078125 446.296875 12.046875 458.347656 26.859375 458.347656 L 78.328125 458.347656 C 78.652344 460.390625 79 462.441406 79.359375 464.464844 L 95.328125 461.609375 C 95.136719 460.53125 94.945312 459.441406 94.761719 458.347656 Z M 26.859375 442.128906 C 20.988281 442.128906 16.214844 437.351562 16.214844 431.484375 L 16.214844 319.214844 C 16.214844 313.347656 20.988281 308.570312 26.859375 308.570312 L 139.125 308.570312 C 144.996094 308.570312 149.769531 313.347656 149.769531 319.214844 L 149.769531 319.429688 L 149.367188 319.429688 L 149.367188 332.070312 L 149.769531 332.070312 L 149.769531 419.492188 L 149.367188 419.492188 L 149.367188 432.132812 L 149.75 432.132812 C 149.410156 437.699219 144.777344 442.128906 139.125 442.128906 Z M 26.859375 442.128906 " fill-opacity="1" fill-rule="nonzero"/><path fill="#43b1ca" d="M 406.882812 721.996094 C 404.933594 721.996094 402.964844 721.980469 401.027344 721.941406 L 400.730469 738.160156 C 402.765625 738.199219 404.835938 738.214844 406.882812 738.214844 C 409.589844 738.214844 412.328125 738.183594 415.027344 738.121094 L 414.636719 721.902344 C 412.070312 721.964844 409.460938 721.996094 406.882812 721.996094 Z M 406.882812 721.996094 " fill-opacity="1" fill-rule="nonzero"/><path fill="#43b1ca" d="M 472.761719 715.128906 L 476.117188 731 C 480.757812 730.015625 485.445312 728.921875 490.042969 727.734375 L 486 712.027344 C 481.625 713.152344 477.171875 714.195312 472.761719 715.128906 Z M 472.761719 715.128906 " fill-opacity="1" fill-rule="nonzero"/><path fill="#43b1ca" d="M 449.050781 719.210938 L 451.191406 735.289062 C 455.898438 734.664062 460.648438 733.925781 465.320312 733.097656 L 462.492188 717.128906 C 458.046875 717.914062 453.527344 718.613281 449.050781 719.210938 Z M 449.050781 719.210938 " fill-opacity="1" fill-rule="nonzero"/><path fill="#43b1ca" d="M 350.398438 733.441406 C 355.070312 734.238281 359.832031 734.949219 364.542969 735.546875 L 366.585938 719.453125 C 362.101562 718.886719 357.578125 718.210938 353.132812 717.453125 Z M 350.398438 733.441406 " fill-opacity="1" fill-rule="nonzero"/><path fill="#43b1ca" d="M 375.480469 736.753906 C 380.199219 737.195312 384.996094 737.539062 389.738281 737.78125 L 390.5625 721.582031 C 386.046875 721.351562 381.480469 721.023438 376.992188 720.601562 Z M 375.480469 736.753906 " fill-opacity="1" fill-rule="nonzero"/><path fill="#43b1ca" d="M 325.644531 728.226562 C 330.246094 729.378906 334.9375 730.449219 339.585938 731.402344 L 342.851562 715.515625 C 338.429688 714.605469 333.96875 713.589844 329.589844 712.492188 Z M 325.644531 728.226562 " fill-opacity="1" fill-rule="nonzero"/><path fill="#43b1ca" d="M 425.09375 721.480469 L 426.011719 737.675781 C 430.753906 737.40625 435.546875 737.03125 440.265625 736.558594 L 438.65625 720.417969 C 434.167969 720.867188 429.605469 721.222656 425.09375 721.480469 Z M 425.09375 721.480469 " fill-opacity="1" fill-rule="nonzero"/><path fill="#43b1ca" d="M 301.355469 721.132812 C 305.855469 722.636719 310.453125 724.0625 315.015625 725.371094 L 319.484375 709.777344 C 315.148438 708.535156 310.777344 707.179688 306.496094 705.746094 Z M 301.355469 721.132812 " fill-opacity="1" fill-rule="nonzero"/><g clip-path="url(#7bfc33874b)"><path fill="#43b1ca" d="M 292.796875 655.628906 C 292.796875 653.726562 292.042969 651.90625 290.699219 650.5625 L 257.675781 617.539062 C 257.570312 617.433594 257.457031 617.332031 257.347656 617.234375 C 257.316406 617.207031 257.285156 617.179688 257.253906 617.15625 C 257.148438 617.0625 257.035156 616.972656 256.921875 616.886719 C 256.90625 616.878906 256.894531 616.863281 256.878906 616.855469 C 256.757812 616.765625 256.632812 616.675781 256.503906 616.59375 C 256.464844 616.570312 256.425781 616.546875 256.390625 616.523438 C 256.273438 616.449219 256.15625 616.378906 256.035156 616.316406 C 256.019531 616.304688 256.003906 616.296875 255.988281 616.289062 C 255.855469 616.214844 255.71875 616.152344 255.582031 616.089844 C 255.542969 616.074219 255.503906 616.054688 255.464844 616.035156 C 255.335938 615.980469 255.203125 615.925781 255.070312 615.878906 C 255.058594 615.875 255.046875 615.871094 255.035156 615.863281 C 254.890625 615.8125 254.746094 615.765625 254.597656 615.726562 C 254.5625 615.714844 254.523438 615.703125 254.484375 615.695312 C 254.347656 615.65625 254.207031 615.621094 254.066406 615.59375 C 254.054688 615.589844 254.042969 615.585938 254.03125 615.585938 C 253.882812 615.554688 253.730469 615.527344 253.578125 615.507812 C 253.535156 615.5 253.5 615.496094 253.460938 615.492188 C 253.328125 615.476562 253.191406 615.464844 253.058594 615.457031 C 253.035156 615.457031 253.011719 615.453125 252.988281 615.453125 C 252.863281 615.445312 252.742188 615.441406 252.617188 615.441406 L 168.207031 615.441406 C 164.25 615.441406 161.042969 618.648438 161.042969 622.605469 L 161.042969 629.296875 L 160.839844 629.480469 C 160.90625 629.554688 160.976562 629.628906 161.042969 629.703125 L 161.042969 769.886719 C 161.042969 773.84375 164.25 777.050781 168.207031 777.050781 L 285.636719 777.050781 C 289.59375 777.050781 292.800781 773.84375 292.800781 769.886719 L 292.800781 712.585938 L 296.636719 702.265625 C 295.359375 701.792969 294.078125 701.308594 292.800781 700.8125 L 292.800781 655.628906 Z M 259.773438 640.015625 L 266.722656 647.03125 L 259.773438 647.03125 Z M 278.472656 762.726562 L 175.367188 762.726562 L 175.367188 629.769531 L 245.453125 629.769531 L 245.453125 654.195312 C 245.453125 658.152344 248.660156 661.359375 252.613281 661.359375 L 278.476562 661.359375 L 278.476562 762.726562 Z M 278.472656 762.726562 " fill-opacity="1" fill-rule="nonzero"/></g><path fill="#43b1ca" d="M 700.726562 523.339844 L 715.777344 529.382812 C 717.589844 524.875 719.324219 520.269531 720.925781 515.6875 L 705.621094 510.316406 C 704.09375 514.671875 702.445312 519.050781 700.726562 523.339844 Z M 700.726562 523.339844 " fill-opacity="1" fill-rule="nonzero"/><path fill="#43b1ca" d="M 678.886719 567.421875 L 692.816406 575.734375 C 695.304688 571.5625 697.734375 567.28125 700.03125 563.007812 L 685.75 555.320312 C 683.566406 559.378906 681.257812 563.453125 678.886719 567.421875 Z M 678.886719 567.421875 " fill-opacity="1" fill-rule="nonzero"/><path fill="#43b1ca" d="M 690.667969 545.808594 L 705.203125 553.007812 C 707.359375 548.65625 709.449219 544.199219 711.40625 539.757812 L 696.570312 533.207031 C 694.703125 537.429688 692.71875 541.667969 690.667969 545.808594 Z M 690.667969 545.808594 " fill-opacity="1" fill-rule="nonzero"/><path fill="#43b1ca" d="M 708.992188 500.152344 L 724.472656 505 C 725.925781 500.363281 727.289062 495.636719 728.535156 490.941406 L 712.855469 486.785156 C 711.671875 491.25 710.375 495.75 708.992188 500.152344 Z M 708.992188 500.152344 " fill-opacity="1" fill-rule="nonzero"/><path fill="#43b1ca" d="M 734.183594 465.679688 L 718.226562 462.765625 C 717.394531 467.308594 716.449219 471.890625 715.421875 476.390625 L 731.234375 480.011719 C 732.316406 475.28125 733.308594 470.457031 734.183594 465.679688 Z M 734.183594 465.679688 " fill-opacity="1" fill-rule="nonzero"/><path fill="#43b1ca" d="M 665.460938 588.058594 L 678.703125 597.425781 C 681.507812 593.460938 684.261719 589.382812 686.886719 585.300781 L 673.246094 576.523438 C 670.75 580.402344 668.128906 584.285156 665.460938 588.058594 Z M 665.460938 588.058594 " fill-opacity="1" fill-rule="nonzero"/><path fill="#43b1ca" d="M 650.476562 607.589844 L 662.953125 617.953125 C 666.054688 614.21875 669.117188 610.363281 672.050781 606.5 L 659.132812 596.691406 C 656.339844 600.367188 653.429688 604.035156 650.476562 607.589844 Z M 650.476562 607.589844 " fill-opacity="1" fill-rule="nonzero"/><path fill="#43b1ca" d="M 634.023438 625.90625 L 645.660156 637.203125 C 649.042969 633.71875 652.390625 630.113281 655.617188 626.488281 L 643.496094 615.710938 C 640.425781 619.160156 637.238281 622.59375 634.023438 625.90625 Z M 634.023438 625.90625 " fill-opacity="1" fill-rule="nonzero"/><path fill="#43b1ca" d="M 578.15625 120.160156 C 576.15625 118.957031 574.121094 117.761719 572.105469 116.605469 L 564.039062 130.675781 C 565.960938 131.777344 567.894531 132.914062 569.792969 134.058594 Z M 578.15625 120.160156 " fill-opacity="1" fill-rule="nonzero"/><path fill="#43b1ca" d="M 675.394531 237.828125 L 689.144531 229.222656 C 686.542969 225.0625 683.808594 220.902344 681.023438 216.859375 L 667.667969 226.066406 C 670.320312 229.910156 672.917969 233.871094 675.394531 237.828125 Z M 675.394531 237.828125 " fill-opacity="1" fill-rule="nonzero"/><path fill="#43b1ca" d="M 687.757812 259.429688 L 702.144531 251.9375 C 699.878906 247.585938 697.480469 243.222656 695.019531 238.972656 L 680.984375 247.101562 C 683.320312 251.144531 685.601562 255.292969 687.757812 259.429688 Z M 687.757812 259.429688 " fill-opacity="1" fill-rule="nonzero"/><path fill="#43b1ca" d="M 661.371094 217.257812 L 674.40625 207.601562 C 671.484375 203.660156 668.433594 199.730469 665.339844 195.914062 L 652.746094 206.140625 C 655.691406 209.765625 658.59375 213.507812 661.371094 217.257812 Z M 661.371094 217.257812 " fill-opacity="1" fill-rule="nonzero"/><path fill="#43b1ca" d="M 698.378906 281.941406 L 713.308594 275.605469 C 711.394531 271.089844 709.347656 266.550781 707.226562 262.117188 L 692.59375 269.117188 C 694.609375 273.332031 696.554688 277.648438 698.378906 281.941406 Z M 698.378906 281.941406 " fill-opacity="1" fill-rule="nonzero"/><path fill="#43b1ca" d="M 610.289062 162.972656 L 620.71875 150.550781 C 616.957031 147.394531 613.078125 144.277344 609.179688 141.289062 L 599.308594 154.160156 C 603.019531 157.003906 606.710938 159.96875 610.289062 162.972656 Z M 610.289062 162.972656 " fill-opacity="1" fill-rule="nonzero"/><path fill="#43b1ca" d="M 628.714844 179.71875 L 640.085938 168.148438 C 636.585938 164.710938 632.960938 161.296875 629.308594 158.015625 L 618.460938 170.078125 C 621.933594 173.199219 625.386719 176.441406 628.714844 179.71875 Z M 628.714844 179.71875 " fill-opacity="1" fill-rule="nonzero"/><path fill="#43b1ca" d="M 600.035156 134.519531 C 596.039062 131.664062 591.925781 128.863281 587.804688 126.191406 L 578.976562 139.796875 C 582.890625 142.339844 586.804688 145.003906 590.609375 147.71875 Z M 600.035156 134.519531 " fill-opacity="1" fill-rule="nonzero"/><path fill="#43b1ca" d="M 645.78125 197.851562 L 658.015625 187.203125 C 654.792969 183.496094 651.445312 179.816406 648.0625 176.257812 L 636.308594 187.433594 C 639.527344 190.820312 642.714844 194.324219 645.78125 197.851562 Z M 645.78125 197.851562 " fill-opacity="1" fill-rule="nonzero"/><path fill="#43b1ca" d="M 493.582031 361.3125 C 495.898438 359.222656 496.648438 355.898438 495.453125 353.019531 L 488.019531 335.070312 C 486.824219 332.1875 483.945312 330.367188 480.832031 330.527344 L 460.964844 331.542969 L 454.777344 325.355469 L 455.792969 305.492188 C 455.953125 302.375 454.132812 299.5 451.25 298.304688 L 433.304688 290.871094 C 430.421875 289.675781 427.101562 290.425781 425.011719 292.742188 L 411.683594 307.503906 L 402.929688 307.503906 L 389.601562 292.742188 C 387.511719 290.425781 384.191406 289.675781 381.308594 290.871094 L 363.359375 298.304688 C 360.480469 299.5 358.660156 302.375 358.820312 305.492188 L 359.835938 325.355469 L 353.648438 331.542969 L 333.78125 330.527344 C 330.667969 330.371094 327.789062 332.1875 326.59375 335.070312 L 319.160156 353.019531 C 317.964844 355.898438 318.714844 359.222656 321.03125 361.3125 L 335.796875 374.640625 L 335.796875 383.390625 L 321.03125 396.71875 C 318.714844 398.808594 317.964844 402.132812 319.160156 405.011719 L 326.59375 422.960938 C 327.789062 425.84375 330.667969 427.664062 333.78125 427.503906 L 353.648438 426.488281 L 359.835938 432.675781 L 358.820312 452.539062 C 358.660156 455.65625 360.480469 458.53125 363.359375 459.726562 L 381.308594 467.160156 C 384.191406 468.355469 387.511719 467.605469 389.601562 465.289062 L 402.929688 450.527344 L 411.683594 450.527344 L 425.011719 465.289062 C 426.4375 466.871094 428.441406 467.722656 430.484375 467.722656 C 431.433594 467.722656 432.390625 467.539062 433.304688 467.160156 L 451.25 459.726562 C 454.132812 458.53125 455.953125 455.65625 455.792969 452.539062 L 454.777344 432.675781 L 460.964844 426.488281 L 480.832031 427.503906 C 483.949219 427.664062 486.824219 425.84375 488.019531 422.960938 L 495.453125 405.011719 C 496.648438 402.132812 495.898438 398.808594 493.582031 396.71875 L 478.820312 383.390625 L 478.820312 374.640625 Z M 466.503906 392.140625 L 479.839844 404.179688 L 476.386719 412.515625 L 458.445312 411.597656 C 456.359375 411.488281 454.328125 412.273438 452.855469 413.75 L 442.035156 424.570312 C 440.558594 426.042969 439.777344 428.074219 439.882812 430.160156 L 440.800781 448.101562 L 432.464844 451.554688 L 420.425781 438.21875 C 419.027344 436.671875 417.039062 435.785156 414.953125 435.785156 L 399.648438 435.785156 C 397.5625 435.785156 395.574219 436.671875 394.175781 438.21875 L 382.136719 451.554688 L 373.804688 448.101562 L 374.71875 430.160156 C 374.824219 428.074219 374.046875 426.042969 372.570312 424.570312 L 361.746094 413.75 C 360.273438 412.273438 358.242188 411.488281 356.160156 411.597656 L 338.21875 412.515625 L 334.765625 404.179688 L 348.097656 392.144531 C 349.648438 390.746094 350.53125 388.757812 350.53125 386.671875 L 350.53125 371.367188 C 350.53125 369.28125 349.648438 367.292969 348.097656 365.894531 L 334.765625 353.855469 L 338.21875 345.519531 L 356.160156 346.4375 C 358.242188 346.542969 360.273438 345.761719 361.746094 344.285156 L 372.570312 333.464844 C 374.042969 331.988281 374.824219 329.960938 374.71875 327.875 L 373.804688 309.933594 L 382.136719 306.480469 L 394.175781 319.816406 C 395.574219 321.363281 397.5625 322.25 399.648438 322.25 L 414.953125 322.25 C 417.039062 322.25 419.027344 321.363281 420.425781 319.816406 L 432.464844 306.480469 L 440.796875 309.933594 L 439.878906 327.875 C 439.773438 329.960938 440.554688 331.988281 442.03125 333.464844 L 452.851562 344.285156 C 454.328125 345.761719 456.359375 346.542969 458.441406 346.4375 L 476.382812 345.519531 L 479.835938 353.855469 L 466.5 365.894531 C 464.953125 367.292969 464.070312 369.28125 464.070312 371.367188 L 464.070312 386.671875 C 464.070312 388.753906 464.957031 390.742188 466.503906 392.140625 Z M 466.503906 392.140625 " fill-opacity="1" fill-rule="nonzero"/><path fill="#43b1ca" d="M 407.304688 338.4375 C 384.929688 338.4375 366.722656 356.640625 366.722656 379.015625 C 366.722656 401.394531 384.929688 419.597656 407.304688 419.597656 C 429.679688 419.597656 447.882812 401.390625 447.882812 379.015625 C 447.882812 356.640625 429.679688 338.4375 407.304688 338.4375 Z M 407.304688 404.851562 C 393.058594 404.851562 381.46875 393.261719 381.46875 379.015625 C 381.46875 364.773438 393.058594 353.183594 407.304688 353.183594 C 421.550781 353.183594 433.136719 364.769531 433.136719 379.015625 C 433.136719 393.265625 421.550781 404.851562 407.304688 404.851562 Z M 407.304688 404.851562 " fill-opacity="1" fill-rule="nonzero"/></svg>